# xmcd CD database file
# Copyright (C) 1997 Ti Kan
# 
# Track frame offsets:
#     150
#     23177
#     33985
#     56250
#     76110
#     93375
#     112117
#     127135
#     136370
#     148472
#     170312
#     191995
#     204692
#     219835
#     236300
# 
# Disc length: 3487 seconds
# 
# Revision: 1
# Processed by: cddbd v1.4b41PL1 Copyright (c) Steve Scherf et al.
# Submitted via: DiscPlay 4.0.4
# 
DISCID=d70d9d0f
DTITLE=The Cranberries - To the Faithful Departed
DYEAR=1900
DGENRE=
TTITLE0=Hollywood
TTITLE1=Salavation
TTITLE2=When You're Gone
TTITLE3=Free to Decide
TTITLE4=War Child
TTITLE5=Forever Yellow Skies
TTITLE6=The Rebels
TTITLE7=Intermission
TTITLE8=Just Shot John Lennon
TTITLE9=Electric Blue
TTITLE10=I'm still Remembering
TTITLE11=Will You Remember?
TTITLE12=Joe
TTITLE13=Cordell
TTITLE14=Bosnia
EXTD=
EXTT0=
EXTT1=
EXTT2=
EXTT3=
EXTT4=
EXTT5=
EXTT6=
EXTT7=
EXTT8=
EXTT9=
EXTT10=
EXTT11=
EXTT12=
EXTT13=
EXTT14=
PLAYORDER=
